<svg width="16" height="16" viewBox="0 0 16 16" fill="none" xmlns="http://www.w3.org/2000/svg">
<path d="M15.4737 8.02768C15.4737 3.88566 12.1159 0.527832 7.97385 0.527832C3.83183 0.527832 0.473999 3.88566 0.473999 8.02768C0.473999 11.5448 2.89555 14.4962 6.16219 15.3067V10.3196H4.61572V8.02768H6.16219V7.0401C6.16219 4.48745 7.31746 3.30428 9.82361 3.30428C10.2988 3.30428 11.1187 3.39757 11.4541 3.49057V5.56803C11.2771 5.54943 10.9696 5.54013 10.5877 5.54013C9.35802 5.54013 8.88283 6.00602 8.88283 7.2171V8.02768H11.3326L10.9117 10.3196H8.88283V15.4726C12.5965 15.0241 15.474 11.8622 15.474 8.02768H15.4737Z" fill="#E5E5FF"/>
</svg>
