<svg width="19" height="18" viewBox="0 0 19 18" fill="none" xmlns="http://www.w3.org/2000/svg">
<path fill-rule="evenodd" clip-rule="evenodd" d="M9.75593 2C7.77829 2 7.53028 2.00832 6.75361 2.04348C5.9785 2.07855 5.44918 2.20069 4.98596 2.37929C4.50714 2.56389 4.10102 2.81093 3.69619 3.21256C3.29134 3.61422 3.04237 4.01712 2.85628 4.49217C2.67625 4.95174 2.55317 5.47689 2.51779 6.24589C2.48235 7.01646 2.474 7.26246 2.474 9.22455C2.474 11.1866 2.48235 11.4327 2.51779 12.2032C2.55317 12.9722 2.67625 13.4974 2.85628 13.9569C3.04237 14.432 3.29134 14.8349 3.69619 15.2365C4.10102 15.6382 4.50714 15.8852 4.98596 16.0699C5.44918 16.2484 5.9785 16.3706 6.75361 16.4057C7.53028 16.4408 7.77829 16.4491 9.75593 16.4491C11.7336 16.4491 11.9816 16.4408 12.7583 16.4057C13.5334 16.3706 14.0627 16.2484 14.5259 16.0699C15.0047 15.8852 15.4108 15.6382 15.8157 15.2365C16.2205 14.8349 16.4695 14.432 16.6556 13.9569C16.8356 13.4974 16.9587 12.9722 16.9941 12.2032C17.0295 11.4327 17.0379 11.1866 17.0379 9.22455C17.0379 7.26249 17.0295 7.01646 16.9941 6.24589C16.9587 5.47689 16.8356 4.95174 16.6556 4.49217C16.4695 4.01712 16.2205 3.61422 15.8157 3.21256C15.4108 2.81093 15.0047 2.56389 14.5259 2.37929C14.0627 2.20069 13.5334 2.07855 12.7583 2.04348C11.9816 2.00832 11.7336 2 9.75593 2ZM9.75655 3.30169C11.7009 3.30169 11.9312 3.30903 12.6991 3.34379C13.4091 3.37594 13.7946 3.49363 14.0512 3.59257C14.3911 3.72363 14.6337 3.88018 14.8885 4.13298C15.1433 4.3858 15.3011 4.62647 15.4333 4.96369C15.533 5.21827 15.6516 5.6008 15.684 6.30519C15.719 7.06699 15.7264 7.2955 15.7264 9.22452C15.7264 11.1536 15.719 11.3821 15.684 12.1438C15.6516 12.8483 15.533 13.2308 15.4333 13.4854C15.3011 13.8226 15.1433 14.0633 14.8885 14.3161C14.6337 14.5689 14.3911 14.7254 14.0512 14.8565C13.7946 14.9554 13.4091 15.0731 12.6991 15.1053C11.9313 15.14 11.7011 15.1474 9.75655 15.1474C7.81203 15.1474 7.58177 15.14 6.81403 15.1053C6.10405 15.0731 5.71845 14.9554 5.46185 14.8565C5.12198 14.7254 4.87937 14.5689 4.62457 14.3161C4.36977 14.0633 4.21194 13.8226 4.07984 13.4854C3.98015 13.2308 3.86152 12.8483 3.82911 12.1439C3.79408 11.3821 3.78668 11.1536 3.78668 9.22452C3.78668 7.2955 3.79408 7.06699 3.82911 6.30519C3.86152 5.6008 3.98015 5.21827 4.07984 4.96369C4.21194 4.62647 4.36977 4.3858 4.62457 4.13301C4.87937 3.88018 5.12198 3.72363 5.46185 3.59257C5.71845 3.49363 6.10405 3.37594 6.81401 3.34379C7.58189 3.30903 7.81218 3.30169 9.75655 3.30169ZM9.75875 11.7253C8.40803 11.7253 7.31303 10.6303 7.31303 9.27957C7.31303 7.92885 8.40803 6.83389 9.75875 6.83389C11.1095 6.83389 12.2045 7.92885 12.2045 9.27957C12.2045 10.6303 11.1095 11.7253 9.75875 11.7253ZM9.75843 5.51191C7.67758 5.51191 5.9907 7.19875 5.9907 9.27959C5.9907 11.3605 7.67758 13.0473 9.75843 13.0473C11.8393 13.0473 13.5261 11.3605 13.5261 9.27959C13.5261 7.19875 11.8393 5.51191 9.75843 5.51191ZM13.2752 6.01425C13.6914 6.01425 14.0287 5.67689 14.0287 5.26072C14.0287 4.84454 13.6914 4.50718 13.2752 4.50718C12.859 4.50718 12.5217 4.84454 12.5217 5.26072C12.5217 5.67689 12.859 6.01425 13.2752 6.01425Z" fill="#E5E5FF"/>
</svg>
