<svg width="14" height="16" viewBox="0 0 14 16" fill="none" xmlns="http://www.w3.org/2000/svg">
<path d="M11.5202 3.50662C10.712 2.97987 10.1292 2.13669 9.94709 1.1543C9.90796 0.942095 9.88613 0.723493 9.88613 0.5H7.30731L7.30317 10.8349C7.2599 11.9922 6.30723 12.9212 5.13973 12.9212C4.77664 12.9212 4.43501 12.8305 4.13401 12.6721C3.44396 12.309 2.97177 11.5859 2.97177 10.7536C2.97177 9.55824 3.94438 8.58563 5.13935 8.58563C5.36247 8.58563 5.57655 8.62251 5.77898 8.68572V6.05309C5.56941 6.02449 5.35645 6.00681 5.13935 6.00681C2.52215 6.00681 0.392944 8.13601 0.392944 10.7536C0.392944 12.3594 1.19511 13.7805 2.41943 14.6399C3.19037 15.1813 4.12836 15.5 5.13973 15.5C7.75693 15.5 9.88613 13.3708 9.88613 10.7536V5.51279C10.8975 6.23858 12.1369 6.66638 13.4741 6.66638V4.08755C12.7539 4.08755 12.0831 3.87347 11.5202 3.50662Z" fill="#E5E5FF"/>
</svg>
