<svg width="19" height="16" viewBox="0 0 19 16" fill="none" xmlns="http://www.w3.org/2000/svg">
<path fill-rule="evenodd" clip-rule="evenodd" d="M7.74676 10.7989V5.67471L12.2505 8.23691L7.74676 10.7989ZM17.7644 4.06274C17.5662 3.31651 16.9823 2.72887 16.241 2.52944C14.8972 2.16699 9.50872 2.16699 9.50872 2.16699C9.50872 2.16699 4.12024 2.16699 2.77647 2.52944C2.03512 2.72887 1.45121 3.31651 1.25304 4.06274C0.892944 5.41522 0.892944 8.23716 0.892944 8.23716C0.892944 8.23716 0.892944 11.059 1.25304 12.4116C1.45121 13.1578 2.03512 13.7454 2.77647 13.945C4.12024 14.3073 9.50872 14.3073 9.50872 14.3073C9.50872 14.3073 14.8972 14.3073 16.241 13.945C16.9823 13.7454 17.5662 13.1578 17.7644 12.4116C18.1245 11.059 18.1245 8.23716 18.1245 8.23716C18.1245 8.23716 18.1245 5.41522 17.7644 4.06274V4.06274Z" fill="#E5E5FF"/>
</svg>
